<?xml version="1.0" standalone="no"?>
<!DOCTYPE svg PUBLIC "-//W3C//DTD SVG 20010904//EN"
 "http://www.w3.org/TR/2001/REC-SVG-20010904/DTD/svg10.dtd">
<svg version="1.0" xmlns="http://www.w3.org/2000/svg"
 width="112.000000pt" height="112.000000pt" viewBox="0 0 112.000000 112.000000"
 preserveAspectRatio="xMidYMid meet">
<metadata>
Created by potrace 1.11, written by Peter Selinger 2001-2013
</metadata>
<g transform="translate(0.000000,112.000000) scale(0.100000,-0.100000)"
fill="#000000" stroke="none">
<path d="M467 992 c-9 -2 -83 -36 -164 -76 -82 -40 -158 -76 -171 -80 -24 -8
-38 -34 -47 -88 -3 -17 -7 -34 -9 -37 -2 -3 -7 -22 -10 -41 -3 -19 -17 -80
-30 -134 l-24 -100 57 -70 c31 -39 61 -76 66 -82 6 -6 36 -45 68 -86 l57 -74
198 1 197 1 176 87 176 86 38 168 c21 92 42 178 46 190 6 16 2 29 -16 50 -13
15 -70 87 -127 158 l-103 130 -181 0 c-99 0 -188 -1 -197 -3z"/>
</g>
</svg>
